<svg width="28" height="16" viewBox="0 0 28 16" fill="none" xmlns="http://www.w3.org/2000/svg">
    <path d="M8.24185 15.5285C6.20472 15.5285 4.47759 14.8071 3.06044 13.3643C1.64332 11.9215 0.934753 10.1811 0.934753 8.14287C0.934753 6.10466 1.63617 4.36363 3.039 2.91978C4.44182 1.47594 6.15526 0.754028 8.17935 0.754028H21.8288C23.2713 0.754028 24.5018 1.26885 25.5201 2.2985C26.5384 3.32816 27.0476 4.56595 27.0476 6.01184C27.0476 7.45774 26.5384 8.69291 25.5201 9.71737C24.5018 10.7418 23.2713 11.2541 21.8288 11.2541H9.37907C8.5004 11.2541 7.75673 10.9523 7.14807 10.3488C6.53938 9.74536 6.23503 9.00804 6.23503 8.13687C6.23503 7.26571 6.54799 6.52985 7.17391 5.92931C7.79983 5.32877 8.55571 5.0285 9.44157 5.0285H21.8288V6.66709H9.41032C9.00286 6.66709 8.64783 6.80799 8.34522 7.08978C8.04262 7.37159 7.89132 7.72078 7.89132 8.13734C7.89132 8.5539 8.03741 8.90146 8.3296 9.18C8.62178 9.45852 8.97161 9.59778 9.37907 9.59778H21.8362C22.8316 9.59778 23.673 9.25103 24.3603 8.55753C25.0477 7.86401 25.3913 7.01505 25.3913 6.01065C25.3913 5.01803 25.0469 4.16981 24.3582 3.466C23.6694 2.76218 22.8263 2.41028 21.8288 2.41028H8.12294C6.56304 2.41028 5.25109 2.96916 4.18707 4.08693C3.12304 5.20471 2.59103 6.55543 2.59103 8.13909C2.59103 9.73838 3.13346 11.0908 4.21832 12.1963C5.30317 13.3018 6.63596 13.8546 8.21669 13.8546H21.8288V15.5285H8.24185Z" fill="#413CB9"/>
</svg>
