<svg width="20" height="22" viewBox="0 0 20 22" fill="none" xmlns="http://www.w3.org/2000/svg">
    <path d="M12.9205 17.5C12.2402 17.5 11.6667 17.2651 11.2 16.7954C10.7334 16.3257 10.5 15.7507 10.5 15.0704C10.5 14.3901 10.7349 13.8167 11.2046 13.35C11.6743 12.8833 12.2493 12.65 12.9296 12.65C13.6099 12.65 14.1834 12.8849 14.65 13.3546C15.1167 13.8243 15.35 14.3993 15.35 15.0796C15.35 15.7599 15.1152 16.3333 14.6455 16.8C14.1757 17.2667 13.6007 17.5 12.9205 17.5ZM2.55384 21.1495C2.09385 21.1495 1.69498 20.9806 1.35721 20.6428C1.01946 20.3051 0.850586 19.9062 0.850586 19.4462V4.0538C0.850586 3.59218 1.01946 3.19191 1.35721 2.85298C1.69498 2.51403 2.09385 2.34455 2.55384 2.34455H4.12504V0.844551H5.85166V2.34455H14.1484V0.844551H15.875V2.34455H17.4462C17.9079 2.34455 18.3081 2.51403 18.6471 2.85298C18.986 3.19191 19.1555 3.59218 19.1555 4.0538V19.4462C19.1555 19.9062 18.986 20.3051 18.6471 20.6428C18.3081 20.9806 17.9079 21.1495 17.4462 21.1495H2.55384ZM2.55384 19.4462H17.4462V8.75H2.55384V19.4462Z" fill="#413CB9"/>
</svg>
