<svg width="24" height="24" viewBox="0 0 24 24" fill="none" xmlns="http://www.w3.org/2000/svg">
    <path d="M21.5 5.94242V18.0577C21.5 18.4499 21.3576 18.7883 21.0729 19.073C20.7882 19.3577 20.4498 19.5 20.0576 19.5H3.94233C3.55018 19.5 3.21175 19.3577 2.92705 19.073C2.64235 18.7883 2.5 18.4499 2.5 18.0577V5.94242C2.5 5.55027 2.64235 5.21184 2.92705 4.92714C3.21175 4.64244 3.55018 4.50009 3.94233 4.50009H20.0576C20.4498 4.50009 20.7882 4.64244 21.0729 4.92714C21.3576 5.21184 21.5 5.55027 21.5 5.94242ZM3.6346 8.57124H20.3654V5.94242C20.3654 5.86548 20.3333 5.79496 20.2692 5.73084C20.2051 5.66674 20.1346 5.63469 20.0576 5.63469H3.94233C3.86539 5.63469 3.79487 5.66674 3.73075 5.73084C3.66665 5.79496 3.6346 5.86548 3.6346 5.94242V8.57124ZM3.6346 11.1904V18.0577C3.6346 18.1347 3.66665 18.2052 3.73075 18.2693C3.79487 18.3334 3.86539 18.3654 3.94233 18.3654H20.0576C20.1346 18.3654 20.2051 18.3334 20.2692 18.2693C20.3333 18.2052 20.3654 18.1347 20.3654 18.0577V11.1904H3.6346Z" fill="#A6A6AD"/>
</svg>
