<svg width="37" height="16" viewBox="0 0 37 16" fill="none" xmlns="http://www.w3.org/2000/svg">
    <path fill-rule="evenodd" clip-rule="evenodd" d="M17.3722 12.2333V7.83127H19.6442C20.5751 7.83127 21.3609 7.51932 22.0015 6.90408L22.1553 6.7481C23.3254 5.47429 23.2485 3.48992 22.0015 2.31143C21.378 1.68753 20.5239 1.34958 19.6442 1.36691H15.9971V12.2333H17.3722ZM17.3724 6.49671V2.70128H19.6789C20.1743 2.70128 20.6442 2.89191 20.9944 3.23853C21.7376 3.96642 21.7547 5.17957 21.0371 5.93346C20.6869 6.30607 20.1914 6.51404 19.6789 6.49671H17.3724ZM28.5697 5.3789C27.9804 4.83299 27.1775 4.55569 26.1611 4.55569C24.8543 4.55569 23.8721 5.04096 23.223 6.00281L24.4358 6.77403C24.8799 6.11546 25.4864 5.78618 26.2551 5.78618C26.7419 5.78618 27.2117 5.96815 27.579 6.29743C27.9377 6.60939 28.1427 7.05999 28.1427 7.53658V7.8572C27.6131 7.56258 26.9469 7.4066 26.127 7.4066C25.1703 7.4066 24.4016 7.6319 23.8294 8.09117C23.2571 8.55043 22.9667 9.15701 22.9667 9.92822C22.9496 10.6301 23.2486 11.2974 23.7781 11.748C24.3162 12.2332 24.9995 12.4758 25.8024 12.4758C26.7505 12.4758 27.5021 12.0512 28.0743 11.202H28.1341V12.2332H29.4495V7.64923C29.4495 6.68738 29.1591 5.92482 28.5697 5.3789ZM24.8375 10.8641C24.5556 10.6561 24.3847 10.3182 24.3847 9.95425C24.3847 9.54698 24.5727 9.20903 24.94 8.94041C25.3159 8.67178 25.7857 8.53313 26.341 8.53313C27.1098 8.52447 27.7078 8.69778 28.1349 9.04439C28.1349 9.63364 27.9042 10.1449 27.4515 10.5782C27.0415 10.9941 26.4862 11.2281 25.9053 11.2281C25.5209 11.2367 25.145 11.1067 24.8375 10.8641ZM32.4048 15.5L36.9999 4.79831H35.5052L33.3785 10.1362H33.3528L31.1748 4.79831H29.6801L32.6952 11.7566L30.9869 15.5H32.4048Z" fill="#A6A6AD"/>
    <path d="M12.6251 6.87812C12.6251 6.45352 12.5909 6.02891 12.5226 5.61298H6.72314V8.01328H10.0457C9.90901 8.7845 9.46487 9.47773 8.81574 9.911V11.4708H10.7973C11.9589 10.3876 12.6251 8.7845 12.6251 6.87812Z" fill="#A6A6AD"/>
    <path d="M6.72343 12.9786C8.38042 12.9786 9.78118 12.424 10.7976 11.4708L8.81602 9.91107C8.26084 10.2923 7.55192 10.509 6.72343 10.509C5.11769 10.509 3.75964 9.40848 3.27279 7.93536H1.23145V9.54712C2.27347 11.6528 4.40023 12.9786 6.72343 12.9786Z" fill="#A6A6AD"/>
    <path d="M3.27287 7.93532C3.01659 7.1641 3.01659 6.32356 3.27287 5.54368V3.94058H1.2312C0.351318 5.69965 0.351318 7.77934 1.2312 9.53841L3.27287 7.93532Z" fill="#A6A6AD"/>
    <path d="M6.72343 2.97007C7.60317 2.95274 8.44875 3.29069 9.0808 3.90593L10.8403 2.12086C9.72139 1.06369 8.2523 0.483107 6.72343 0.500438C4.40023 0.500438 2.27347 1.83491 1.23145 3.94059L3.27279 5.55235C3.75964 4.07057 5.11769 2.97007 6.72343 2.97007Z" fill="#A6A6AD"/>
</svg>
