<svg width="20" height="22" viewBox="0 0 20 22" fill="none" xmlns="http://www.w3.org/2000/svg">
    <path d="M10 13.1667C9.69306 13.1667 9.43576 13.0628 9.22812 12.8552C9.02049 12.6476 8.91667 12.3903 8.91667 12.0833C8.91667 11.7764 9.02049 11.5191 9.22812 11.3114C9.43576 11.1038 9.69306 11 10 11C10.3069 11 10.5642 11.1038 10.7719 11.3114C10.9795 11.5191 11.0833 11.7764 11.0833 12.0833C11.0833 12.3903 10.9795 12.6476 10.7719 12.8552C10.5642 13.0628 10.3069 13.1667 10 13.1667ZM5.66667 13.1667C5.35972 13.1667 5.10243 13.0628 4.89479 12.8552C4.68715 12.6476 4.58333 12.3903 4.58333 12.0833C4.58333 11.7764 4.68715 11.5191 4.89479 11.3114C5.10243 11.1038 5.35972 11 5.66667 11C5.97361 11 6.2309 11.1038 6.43854 11.3114C6.64618 11.5191 6.75 11.7764 6.75 12.0833C6.75 12.3903 6.64618 12.6476 6.43854 12.8552C6.2309 13.0628 5.97361 13.1667 5.66667 13.1667ZM14.3333 13.1667C14.0264 13.1667 13.7691 13.0628 13.5615 12.8552C13.3538 12.6476 13.25 12.3903 13.25 12.0833C13.25 11.7764 13.3538 11.5191 13.5615 11.3114C13.7691 11.1038 14.0264 11 14.3333 11C14.6403 11 14.8976 11.1038 15.1052 11.3114C15.3128 11.5191 15.4167 11.7764 15.4167 12.0833C15.4167 12.3903 15.3128 12.6476 15.1052 12.8552C14.8976 13.0628 14.6403 13.1667 14.3333 13.1667ZM10 17.5C9.69306 17.5 9.43576 17.3962 9.22812 17.1885C9.02049 16.9809 8.91667 16.7236 8.91667 16.4167C8.91667 16.1097 9.02049 15.8524 9.22812 15.6448C9.43576 15.4371 9.69306 15.3333 10 15.3333C10.3069 15.3333 10.5642 15.4371 10.7719 15.6448C10.9795 15.8524 11.0833 16.1097 11.0833 16.4167C11.0833 16.7236 10.9795 16.9809 10.7719 17.1885C10.5642 17.3962 10.3069 17.5 10 17.5ZM5.66667 17.5C5.35972 17.5 5.10243 17.3962 4.89479 17.1885C4.68715 16.9809 4.58333 16.7236 4.58333 16.4167C4.58333 16.1097 4.68715 15.8524 4.89479 15.6448C5.10243 15.4371 5.35972 15.3333 5.66667 15.3333C5.97361 15.3333 6.2309 15.4371 6.43854 15.6448C6.64618 15.8524 6.75 16.1097 6.75 16.4167C6.75 16.7236 6.64618 16.9809 6.43854 17.1885C6.2309 17.3962 5.97361 17.5 5.66667 17.5ZM14.3333 17.5C14.0264 17.5 13.7691 17.3962 13.5615 17.1885C13.3538 16.9809 13.25 16.7236 13.25 16.4167C13.25 16.1097 13.3538 15.8524 13.5615 15.6448C13.7691 15.4371 14.0264 15.3333 14.3333 15.3333C14.6403 15.3333 14.8976 15.4371 15.1052 15.6448C15.3128 15.8524 15.4167 16.1097 15.4167 16.4167C15.4167 16.7236 15.3128 16.9809 15.1052 17.1885C14.8976 17.3962 14.6403 17.5 14.3333 17.5ZM1.875 21.8333C1.44167 21.8333 1.0625 21.6708 0.7375 21.3458C0.4125 21.0208 0.25 20.6417 0.25 20.2083V3.41666C0.25 2.98332 0.4125 2.60416 0.7375 2.27916C1.0625 1.95416 1.44167 1.79166 1.875 1.79166H3.63542V1.03332C3.63542 0.787768 3.71847 0.581934 3.88458 0.415823C4.05069 0.249712 4.25653 0.166656 4.50208 0.166656C4.75531 0.166656 4.96758 0.249712 5.13889 0.415823C5.31019 0.581934 5.39583 0.787768 5.39583 1.03332V1.79166H14.6042V1.03332C14.6042 0.787768 14.6872 0.581934 14.8533 0.415823C15.0194 0.249712 15.2253 0.166656 15.4708 0.166656C15.7241 0.166656 15.9363 0.249712 16.1076 0.415823C16.2789 0.581934 16.3646 0.787768 16.3646 1.03332V1.79166H18.125C18.5583 1.79166 18.9375 1.95416 19.2625 2.27916C19.5875 2.60416 19.75 2.98332 19.75 3.41666V20.2083C19.75 20.6417 19.5875 21.0208 19.2625 21.3458C18.9375 21.6708 18.5583 21.8333 18.125 21.8333H1.875ZM1.875 20.2083H18.125V8.56249H1.875V20.2083ZM1.875 6.93749H18.125V3.41666H1.875V6.93749Z" fill="#A6A6AD"/>
</svg>
