<svg width="22" height="21" viewBox="0 0 22 21" fill="none" xmlns="http://www.w3.org/2000/svg">
    <path d="M0.166748 19.8833V1.79167C0.166748 1.37639 0.329248 1.00174 0.654248 0.667714C0.979248 0.333686 1.35841 0.166672 1.79175 0.166672H20.2084C20.6237 0.166672 20.9983 0.333686 21.3324 0.667714C21.6664 1.00174 21.8334 1.37639 21.8334 1.79167V15.875C21.8334 16.2903 21.6664 16.6649 21.3324 16.999C20.9983 17.333 20.6237 17.5 20.2084 17.5H4.50008L1.548 20.4521C1.29522 20.7049 1.00182 20.7621 0.66779 20.6239C0.333762 20.4857 0.166748 20.2388 0.166748 19.8833ZM1.79175 17.9063L3.823 15.875H20.2084V1.79167H1.79175V17.9063Z" fill="#A6A6AD"/>
</svg>
