<svg width="22" height="14" viewBox="0 0 22 14" fill="none" xmlns="http://www.w3.org/2000/svg">
    <path d="M0.735449 12.9313C0.572949 12.7688 0.491699 12.5792 0.491699 12.3625C0.491699 12.1458 0.572949 11.9563 0.735449 11.7937L6.09795 6.43125C6.67573 5.85347 7.37989 5.56458 8.21045 5.56458C9.04101 5.56458 9.74517 5.85347 10.3229 6.43125L11.5688 7.67708C11.8396 7.94792 12.1601 8.08333 12.5302 8.08333C12.9004 8.08333 13.2209 7.94792 13.4917 7.67708L19.0438 2.125H16.6875C16.4528 2.125 16.2587 2.04826 16.1052 1.89479C15.9518 1.74132 15.875 1.54722 15.875 1.3125C15.875 1.07778 15.9518 0.883681 16.1052 0.730208C16.2587 0.576736 16.4528 0.5 16.6875 0.5H21.0209C21.2556 0.5 21.4497 0.576736 21.6032 0.730208C21.7566 0.883681 21.8334 1.07778 21.8334 1.3125V5.64583C21.8334 5.88056 21.7566 6.07465 21.6032 6.22813C21.4497 6.3816 21.2556 6.45833 21.0209 6.45833C20.7861 6.45833 20.592 6.3816 20.4386 6.22813C20.2851 6.07465 20.2084 5.88056 20.2084 5.64583V3.28958L14.6292 8.84167C14.0514 9.41944 13.3473 9.70833 12.5167 9.70833C11.6861 9.70833 10.982 9.41944 10.4042 8.84167L9.13128 7.56875C8.8785 7.31597 8.56253 7.18958 8.18337 7.18958C7.8042 7.18958 7.48823 7.31597 7.23545 7.56875L1.87295 12.9313C1.71045 13.0938 1.52087 13.175 1.3042 13.175C1.08753 13.175 0.897949 13.0938 0.735449 12.9313Z" fill="#A6A6AD"/>
</svg>
