<svg width="26" height="18" viewBox="0 0 26 18" fill="none" xmlns="http://www.w3.org/2000/svg">
    <path d="M14.6962 10.476C13.7934 10.476 13.026 10.1601 12.3941 9.52812C11.7622 8.89618 11.4462 8.12882 11.4462 7.22604C11.4462 6.32326 11.7622 5.5559 12.3941 4.92396C13.026 4.29201 13.7934 3.97604 14.6962 3.97604C15.599 3.97604 16.3663 4.29201 16.9983 4.92396C17.6302 5.5559 17.9462 6.32326 17.9462 7.22604C17.9462 8.12882 17.6302 8.89618 16.9983 9.52812C16.3663 10.1601 15.599 10.476 14.6962 10.476ZM6.18497 14.4167C5.67344 14.4167 5.23694 14.2359 4.87547 13.8745C4.51401 13.513 4.33328 13.0765 4.33328 12.565V1.8871C4.33328 1.37788 4.51401 0.941958 4.87547 0.57933C5.23694 0.216721 5.67344 0.0354156 6.18497 0.0354156H23.2204C23.7278 0.0354156 24.1622 0.216721 24.5236 0.57933C24.8849 0.941958 25.0656 1.37788 25.0656 1.8871V12.565C25.0656 13.0765 24.8849 13.513 24.5236 13.8745C24.1622 14.2359 23.7278 14.4167 23.2204 14.4167H6.18497ZM8.81558 12.6427H20.5833C20.5833 11.8844 20.8451 11.2434 21.3687 10.7198C21.8923 10.1962 22.5333 9.93437 23.2916 9.93437V4.51771C22.5333 4.51771 21.8923 4.25482 21.3687 3.72904C20.8451 3.20328 20.5833 2.56339 20.5833 1.80937H8.81558C8.81558 2.56339 8.55377 3.20328 8.03016 3.72904C7.50655 4.25482 6.86558 4.51771 6.10724 4.51771V9.93437C6.86558 9.93437 7.50655 10.1962 8.03016 10.7198C8.55377 11.2434 8.81558 11.8844 8.81558 12.6427ZM21.6666 17.8156H2.77951C2.2721 17.8156 1.83771 17.6349 1.47634 17.2736C1.115 16.9122 0.934326 16.4778 0.934326 15.9704V3.58333H2.77951V15.9704H21.6666V17.8156Z" fill="#A6A6AD"/>
</svg>
