<svg width="22" height="18" viewBox="0 0 22 18" fill="none" xmlns="http://www.w3.org/2000/svg">
    <path d="M1.79175 17.6667C1.3223 17.6667 0.934109 17.5132 0.627165 17.2063C0.32022 16.8993 0.166748 16.5111 0.166748 16.0417V11.8979C0.834804 11.7535 1.39001 11.4149 1.83237 10.8823C2.27473 10.3497 2.49591 9.72223 2.49591 9.00001C2.49591 8.27779 2.27473 7.64584 1.83237 7.10418C1.39001 6.56251 0.834804 6.22848 0.166748 6.10209V1.95834C0.166748 1.4889 0.32022 1.1007 0.627165 0.79376C0.934109 0.486816 1.3223 0.333344 1.79175 0.333344H20.2084C20.6779 0.333344 21.0661 0.486816 21.373 0.79376C21.6799 1.1007 21.8334 1.4889 21.8334 1.95834V6.10209C21.1654 6.22848 20.6101 6.56251 20.1678 7.10418C19.7254 7.64584 19.5042 8.27779 19.5042 9.00001C19.5042 9.72223 19.7254 10.3497 20.1678 10.8823C20.6101 11.4149 21.1654 11.7535 21.8334 11.8979V16.0417C21.8334 16.5111 21.6799 16.8993 21.373 17.2063C21.0661 17.5132 20.6779 17.6667 20.2084 17.6667H1.79175ZM1.79175 16.0417H20.2084V13.0896C19.5223 12.6201 18.9626 12.0333 18.5292 11.3292C18.0959 10.625 17.8792 9.84862 17.8792 9.00001C17.8792 8.1514 18.0959 7.37501 18.5292 6.67084C18.9626 5.96668 19.5223 5.37987 20.2084 4.91043V1.95834H1.79175V4.91043C2.49591 5.37987 3.06015 5.96668 3.48446 6.67084C3.90876 7.37501 4.12091 8.1514 4.12091 9.00001C4.12091 9.84862 3.90876 10.625 3.48446 11.3292C3.06015 12.0333 2.49591 12.6201 1.79175 13.0896V16.0417ZM11.0001 14.3354C11.2167 14.3354 11.4063 14.2542 11.5688 14.0917C11.7313 13.9292 11.8126 13.7396 11.8126 13.5229C11.8126 13.3063 11.7313 13.1167 11.5688 12.9542C11.4063 12.7917 11.2167 12.7104 11.0001 12.7104C10.7834 12.7104 10.5938 12.7917 10.4313 12.9542C10.2688 13.1167 10.1876 13.3063 10.1876 13.5229C10.1876 13.7396 10.2688 13.9292 10.4313 14.0917C10.5938 14.2542 10.7834 14.3354 11.0001 14.3354ZM11.0001 9.81251C11.2167 9.81251 11.4063 9.73126 11.5688 9.56876C11.7313 9.40626 11.8126 9.21668 11.8126 9.00001C11.8126 8.78334 11.7313 8.59376 11.5688 8.43126C11.4063 8.26876 11.2167 8.18751 11.0001 8.18751C10.7834 8.18751 10.5938 8.26876 10.4313 8.43126C10.2688 8.59376 10.1876 8.78334 10.1876 9.00001C10.1876 9.21668 10.2688 9.40626 10.4313 9.56876C10.5938 9.73126 10.7834 9.81251 11.0001 9.81251ZM11.0001 5.28959C11.2167 5.28959 11.4063 5.20834 11.5688 5.04584C11.7313 4.88334 11.8126 4.69376 11.8126 4.47709C11.8126 4.26043 11.7313 4.07084 11.5688 3.90834C11.4063 3.74584 11.2167 3.66459 11.0001 3.66459C10.7834 3.66459 10.5938 3.74584 10.4313 3.90834C10.2688 4.07084 10.1876 4.26043 10.1876 4.47709C10.1876 4.69376 10.2688 4.88334 10.4313 5.04584C10.5938 5.20834 10.7834 5.28959 11.0001 5.28959Z" fill="#A6A6AD"/>
</svg>
