<svg width="24" height="24" viewBox="0 0 24 24" fill="none" xmlns="http://www.w3.org/2000/svg">
    <path d="M18.6074 8.62872L17.371 5.98517L14.7275 4.74873L17.371 3.51227L18.6074 0.86875L19.8496 3.51303L22.4939 4.74873L19.8496 5.98444L18.6074 8.62872ZM20.876 16.6177L20.07 14.905L18.3572 14.099L20.07 13.293L20.876 11.5802L21.682 13.293L23.3947 14.099L21.682 14.905L20.876 16.6177ZM6.35519 23.0535L6.07788 20.523C5.84668 20.5013 5.60349 20.4324 5.34831 20.3163C5.09313 20.2002 4.87433 20.0582 4.69192 19.8901L2.56 20.7903L0.0341797 16.6572L2.12488 15.29C2.0346 15.0036 1.98946 14.7533 1.98946 14.5391C1.98946 14.3249 2.0346 14.0745 2.12488 13.7881L0.0341797 12.421L2.56 8.28782L4.69192 9.18805C4.87433 9.01876 5.09313 8.87656 5.34831 8.76146C5.60349 8.64633 5.84668 8.57539 6.07788 8.54864L6.35722 6.0246H11.1772L11.4545 8.54864C11.6857 8.57539 11.9278 8.64633 12.1808 8.76146C12.4339 8.87656 12.6537 9.01876 12.8405 9.18805L14.9724 8.28782L17.4982 12.421L15.4075 13.7881C15.4978 14.0745 15.5429 14.3249 15.5429 14.5391C15.5429 14.7533 15.4978 15.0036 15.4075 15.29L17.4982 16.6572L14.9724 20.7903L12.8405 19.8901C12.6537 20.0596 12.4339 20.202 12.1808 20.3174C11.9278 20.4328 11.6857 20.5013 11.4545 20.523L11.1752 23.0535H6.35519ZM8.76734 17.7022C9.67799 17.7022 10.4321 17.4039 11.0297 16.8071C11.6273 16.2104 11.9261 15.4536 11.9261 14.5366C11.9261 13.6247 11.6269 12.8699 11.0286 12.2723C10.4302 11.6747 9.67463 11.3759 8.76181 11.3759C7.84899 11.3759 7.09487 11.6751 6.49943 12.2735C5.904 12.8718 5.60628 13.6274 5.60628 14.5402C5.60628 15.453 5.90419 16.2082 6.50003 16.8058C7.09588 17.4034 7.85165 17.7022 8.76734 17.7022ZM8.7662 16.0772C8.3199 16.0772 7.95251 15.9319 7.66401 15.6412C7.37552 15.3506 7.23128 14.9821 7.23128 14.5358C7.23128 14.0895 7.37552 13.7221 7.66401 13.4337C7.95251 13.1452 8.3199 13.0009 8.7662 13.0009C9.21248 13.0009 9.57986 13.1452 9.86835 13.4337C10.1569 13.7221 10.3011 14.0895 10.3011 14.5358C10.3011 14.9821 10.1569 15.3506 9.86835 15.6412C9.57986 15.9319 9.21248 16.0772 8.7662 16.0772ZM7.84537 21.2796H9.68703L9.9037 19.2212C10.423 19.0948 10.8998 18.9143 11.334 18.6796C11.7683 18.4448 12.1643 18.1379 12.5221 17.7587L14.2912 18.5441L15.1849 17.1358L13.5058 15.9441C13.7044 15.4928 13.8037 15.0233 13.8037 14.5358C13.8037 14.0483 13.7044 13.5789 13.5058 13.1275L15.1849 11.9358L14.2912 10.5275L12.5221 11.3129C12.1643 10.9337 11.7683 10.6268 11.334 10.3921C10.8998 10.1573 10.423 9.97678 9.9037 9.8504L9.68703 7.79206H7.84537L7.6287 9.8504C7.10509 9.97678 6.62662 10.1573 6.19328 10.3921C5.75995 10.6268 5.36482 10.9337 5.0079 11.3129L3.2412 10.5275L2.34745 11.9358L4.02661 13.1275C3.82369 13.5789 3.7233 14.0483 3.72545 14.5358C3.72762 15.0233 3.828 15.4928 4.02661 15.9441L2.34745 17.1358L3.2412 18.5441L5.0079 17.7587C5.36482 18.1379 5.75995 18.4448 6.19328 18.6796C6.62662 18.9143 7.10509 19.0948 7.6287 19.2212L7.84537 21.2796Z" fill="#A6A6AD"/>
</svg>
