<svg width="54" height="16" viewBox="0 0 54 16" fill="none" xmlns="http://www.w3.org/2000/svg">
    <path fill-rule="evenodd" clip-rule="evenodd" d="M6.66906 0.750061H2.47998C2.19329 0.750061 1.94948 0.959192 1.9047 1.24343L0.210437 12.0287C0.176809 12.2416 0.341003 12.4333 0.555981 12.4333H2.55582C2.84251 12.4333 3.08631 12.2244 3.13109 11.9396L3.58799 9.03056C3.63208 8.7458 3.8764 8.53667 4.16258 8.53667H5.48865C8.24803 8.53667 9.84056 7.19592 10.2566 4.53923C10.444 3.37678 10.2645 2.46359 9.72235 1.82397C9.12699 1.12164 8.07097 0.750061 6.66906 0.750061ZM7.1521 4.68927C6.92305 6.19849 5.77456 6.19849 4.66415 6.19849H4.03191L4.47542 3.37987C4.50184 3.2095 4.64871 3.08409 4.82028 3.08409H5.11006C5.86652 3.08409 6.58008 3.08409 6.94879 3.51699C7.16874 3.77522 7.236 4.15903 7.1521 4.68927V4.68927Z" fill="#A6A6AD"/>
    <path fill-rule="evenodd" clip-rule="evenodd" d="M19.2981 4.55909H17.292C17.1212 4.55909 16.9734 4.6845 16.9472 4.85487L16.8583 5.41818L16.7181 5.21405C16.2839 4.58114 15.3154 4.3696 14.3489 4.3696C12.132 4.3696 10.2387 6.0554 9.87004 8.4201C9.6784 9.59961 9.95085 10.7276 10.6174 11.5142C11.2287 12.2374 12.1034 12.5388 13.144 12.5388C14.9302 12.5388 15.9205 11.3857 15.9205 11.3857L15.8311 11.9454C15.7975 12.1593 15.9617 12.3512 16.1755 12.3512H17.9823C18.2697 12.3512 18.5123 12.1421 18.5576 11.8573L19.6417 4.96375C19.676 4.75151 19.5123 4.55909 19.2981 4.55909ZM16.5018 8.4792C16.3082 9.62976 15.3987 10.4022 14.2386 10.4022C13.6561 10.4022 13.1906 10.2146 12.8916 9.85922C12.5951 9.50625 12.4825 9.00375 12.5767 8.44405C12.7576 7.30331 13.6823 6.50554 14.8248 6.50554C15.3945 6.50554 15.8575 6.69572 16.1626 7.05404C16.4681 7.41631 16.5895 7.92191 16.5018 8.4792V8.4792Z" fill="#A6A6AD"/>
    <path fill-rule="evenodd" clip-rule="evenodd" d="M29.8273 4.73166H27.8114C27.6191 4.73166 27.4384 4.82761 27.3294 4.98816L24.5491 9.09999L23.3706 5.14854C23.2965 4.90134 23.0693 4.73166 22.812 4.73166H20.8312C20.5903 4.73166 20.4232 4.96784 20.4997 5.1954L22.7202 11.7377L20.6327 14.6966C20.4685 14.9297 20.6339 15.2501 20.9175 15.2501H22.9309C23.122 15.2501 23.3008 15.1565 23.4092 14.9992L30.1139 5.28205C30.2745 5.04966 30.1096 4.73166 29.8273 4.73166" fill="#A6A6AD"/>
    <path fill-rule="evenodd" clip-rule="evenodd" d="M36.5473 0.750061H32.3577C32.0717 0.750061 31.8279 0.959192 31.7831 1.24343L30.0889 12.0287C30.0552 12.2416 30.2194 12.4333 30.4332 12.4333H32.5832C32.7827 12.4333 32.9536 12.2871 32.9848 12.0878L33.4657 9.03056C33.5098 8.7458 33.7543 8.53667 34.0403 8.53667H35.3659C38.1258 8.53667 39.7178 7.19592 40.1344 4.53923C40.3224 3.37678 40.1417 2.46359 39.5996 1.82397C39.0047 1.12164 37.9494 0.750061 36.5473 0.750061ZM37.0307 4.68927C36.8022 6.19849 35.6537 6.19849 34.5426 6.19849H33.9112L34.3552 3.37987C34.3815 3.2095 34.5273 3.08409 34.6994 3.08409H34.9892C35.7449 3.08409 36.4592 3.08409 36.8279 3.51699C37.0479 3.77522 37.1146 4.15903 37.0307 4.68927V4.68927Z" fill="#A6A6AD"/>
    <path fill-rule="evenodd" clip-rule="evenodd" d="M49.1738 4.55909H47.169C46.9969 4.55909 46.8505 4.6845 46.8248 4.85487L46.7359 5.41818L46.5951 5.21405C46.1608 4.58114 45.193 4.3696 44.2263 4.3696C42.0096 4.3696 40.117 6.0554 39.7483 8.4201C39.5572 9.59961 39.8285 10.7276 40.4948 11.5142C41.1075 12.2374 41.9808 12.5388 43.0216 12.5388C44.8076 12.5388 45.7981 11.3857 45.7981 11.3857L45.7087 11.9454C45.6751 12.1593 45.8391 12.3512 46.0543 12.3512H47.8606C48.1466 12.3512 48.3904 12.1421 48.4352 11.8573L49.5198 4.96375C49.5529 4.75151 49.3888 4.55909 49.1738 4.55909ZM46.3776 8.4792C46.1852 9.62976 45.2744 10.4022 44.1142 10.4022C43.5329 10.4022 43.0663 10.2146 42.7672 9.85922C42.4709 9.50625 42.3594 9.00375 42.4524 8.44405C42.6344 7.30331 43.558 6.50554 44.7005 6.50554C45.2701 6.50554 45.7332 6.69572 46.0382 7.05404C46.345 7.41631 46.4663 7.92191 46.3776 8.4792V8.4792Z" fill="#A6A6AD"/>
    <path fill-rule="evenodd" clip-rule="evenodd" d="M51.3717 1.04653L49.6523 12.0292C49.6187 12.2421 49.7827 12.4339 49.9965 12.4339H51.7251C52.0125 12.4339 52.2561 12.2249 52.3002 11.9401L53.9957 1.1554C54.0295 0.942483 53.8653 0.750061 53.6515 0.750061H51.716C51.5451 0.750578 51.3981 0.87616 51.3717 1.04653" fill="#A6A6AD"/>
</svg>
