<svg width="19" height="20" viewBox="0 0 19 20" fill="none" xmlns="http://www.w3.org/2000/svg">
<path d="M5.83337 15.5L9.50004 12.7042L13.1667 15.5L11.7 10.9855L15.3667 8.39587H10.898L9.50004 3.74379L8.07921 8.39587H3.61046L7.27712 10.9855L5.83337 15.5ZM9.50004 19.1667C8.24726 19.1667 7.06324 18.9261 5.94796 18.4448C4.83268 17.9636 3.85872 17.3066 3.02608 16.474C2.19344 15.6414 1.5365 14.6674 1.05525 13.5521C0.573999 12.4368 0.333374 11.2528 0.333374 10C0.333374 8.73199 0.573999 7.54032 1.05525 6.42504C1.5365 5.30976 2.19344 4.33962 3.02608 3.51462C3.85872 2.68962 4.83268 2.0365 5.94796 1.55525C7.06324 1.074 8.24726 0.833374 9.50004 0.833374C10.7681 0.833374 11.9598 1.074 13.075 1.55525C14.1903 2.0365 15.1605 2.68962 15.9855 3.51462C16.8105 4.33962 17.4636 5.30976 17.9448 6.42504C18.4261 7.54032 18.6667 8.73199 18.6667 10C18.6667 11.2528 18.4261 12.4368 17.9448 13.5521C17.4636 14.6674 16.8105 15.6414 15.9855 16.474C15.1605 17.3066 14.1903 17.9636 13.075 18.4448C11.9598 18.9261 10.7681 19.1667 9.50004 19.1667ZM9.50004 17.7917C11.6695 17.7917 13.5105 17.0316 15.023 15.5115C16.5355 13.9914 17.2917 12.1542 17.2917 10C17.2917 7.8306 16.5355 5.98962 15.023 4.47712C13.5105 2.96462 11.6695 2.20837 9.50004 2.20837C7.34587 2.20837 5.50872 2.96462 3.98858 4.47712C2.46844 5.98962 1.70837 7.8306 1.70837 10C1.70837 12.1542 2.46844 13.9914 3.98858 15.5115C5.50872 17.0316 7.34587 17.7917 9.50004 17.7917Z" fill="#413CB9"/>
</svg>
